<?xml version="1.0" encoding="UTF-8"?>
<svg id="Layer_1" data-name="Layer 1" xmlns="http://www.w3.org/2000/svg" viewBox="0 0 66 66">
  <path d="M33,1c17.64,0,32,14.36,32,32s-14.36,32-32,32S1,50.64,1,33,15.36,1,33,1M33,0C14.77,0,0,14.77,0,33s14.77,33,33,33,33-14.77,33-33S51.23,0,33,0h0Z"/>
  <path d="M16.26,31.9s-.02.02-.03.03c-.45.47-.44,1.22.03,1.68l10.8,10.8s0,0,0,0c.47.47,1.24.47,1.71,0,.46-.48.46-1.23,0-1.71l-8.73-8.72h28.81c.62-.03,1.12-.53,1.15-1.15.04-.67-.48-1.24-1.15-1.28h-28.81s8.72-8.73,8.72-8.73c.06-.05.11-.1.15-.15.43-.51.36-1.28-.15-1.71s-1.28-.36-1.71.15l-10.78,10.78Z"/>
</svg>