<?xml version="1.0" encoding="UTF-8"?>
<svg id="Layer_5" data-name="Layer 5" xmlns="http://www.w3.org/2000/svg" viewBox="0 0 785.21 753">
  <defs>
    <style>
      .cls-1 {
        fill: aqua;
        opacity: .74;
      }
    </style>
  </defs>
  <path class="cls-1" d="M67.21,68c2.53-8.65,31.14-7.4,38-7,18.48,1.09,31.79,5.06,42,8,60.69,17.47,56.42,11.3,79,21,31.84,13.67,32.7,22.67,53,24,13.02.85,22.25-2.21,41,2,11.3,2.54,19.25,4.33,26,11,9.74,9.64,5.94,18.54,15,35,4.26,7.74,6.25,7.86,21,24,18.51,20.26,27.77,30.39,33,41,9.86,20,1.69,22.44,13,45,4.92,9.82,10.68,17.75,13,32,1.4,8.6,1.03,16.34,1,17-.66,12.62-3.92,14.6-4,25-.02,2.74,1.32,9.2,4,22,4.04,19.28,4.49,20.13,4,23-1.21,7.1-5.45,10.62-20,24-26.95,24.78-23.47,22.89-28,26-21.32,14.64-33.2,11.67-37,22-2.72,7.38,3.31,8.99,9,32,2.01,8.15.98,6.8,7,42,1.31,7.63,1.97,11.26,3,16,3.32,15.2-.74,25.46,0,29,3.55,17.04-17.43,38.38-46,55-30.8,17.92-91.24,43.33-146,21-29.88-12.18-53.57-18.35-68-35-9.56-11.03-13.39-11.19-31-33-10.8-13.37-23.9-37.38-23-43,1.53-9.49,24.27,1.39,42-10,7.6-4.88,20.03-14.14,20-34-.01-7.77,21.63-23.41-22-65-8.59-8.19-22.74-21.87-34-42-6.34-11.33-7.76-17.56-8-23-.62-14.14,6.94-18.48,4-28-3.29-10.64-14.19-9.97-19-22-1.51-3.79-2.08-7.99,0-21,4.83-30.18,11.78-31.76,11-45-1.03-17.61-13.5-17.95-17-40-.66-4.16-4.2-26.47,7-35,12.52-9.53,35,4.57,38-1,1.13-2.09-1.44-5.2-18-26-7.76-9.74-11.66-14.72-13-20-2.49-9.83.49-18.7,2-23,5.67-16.18,16.02-19.04,15-29-.85-8.23-8.34-10.42-7-15Z"/>
</svg>