<?xml version="1.0" encoding="UTF-8"?>
<svg id="Layer_14" data-name="Layer 14" xmlns="http://www.w3.org/2000/svg" viewBox="0 0 785.21 753">
  <defs>
    <style>
      .cls-1 {
        fill: #ed2700;
      }
    </style>
  </defs>
  <path class="cls-1" d="M127.21,125c4,15,3.26,24.31,6,25,4,1,10.01-7.01,11-8,3-3,3.43-2.07,7-6,7.47-8.24,19.35-9.74,17-10-27-3-30-10-31-12-.39-.78-12-9-14-8-1.73.87,2.91,14.9,4,19Z"/>
  <path class="cls-1" d="M126.21,248c-.98.74-.73,2.56,0,3,.96.57,3.17-.96,3-2-.14-.85-1.95-1.8-3-1Z"/>
  <path class="cls-1" d="M183.21,301c-1.54,1.4,1.08,8.06,3,8,1.33-.04,3.46-3.34,2-6-1.16-2.11-4.06-2.86-5-2Z"/>
  <path class="cls-1" d="M202.21,326c-1.73.41-1.13,14.31,2,15,.95.21,1.87-.85,2-1,3.25-3.74-2.41-14.37-4-14Z"/>
  <path class="cls-1" d="M222.21,469c-5.61,4.5-28.41,5.75-30,9-4.36,8.91,11.94,42.7,18,44,4.06.87,35.29-34.69,33-36-14-8-5.86-21.15-11-23-1.74-.63-4.5,1.58-10,6Z"/>
  <path class="cls-1" d="M219.21,554c-6.6,3.86-38.93,16.2-37,22,4.05,12.15,117.44,6.75,120-6,1.41-7.01-44.86-19.76-61-21-4.02-.31-12.87-.34-22,5Z"/>
  <path class="cls-1" d="M196.21,184c.73.6.33,2.22,0,3-1.72,4.05-9.47,4.3-10,3-.63-1.55,8.09-7.57,10-6Z"/>
</svg>