<?xml version="1.0" encoding="UTF-8"?>
<svg id="Layer_6" data-name="Layer 6" xmlns="http://www.w3.org/2000/svg" viewBox="0 0 785.21 753">
  <defs>
    <style>
      .cls-1 {
        fill: #2ca864;
        opacity: .56;
      }
    </style>
  </defs>
  <path class="cls-1" d="M81.21,70c14.14-11.58,59.52,2.52,115,16,8.76,2.13,24.24,16,45,22,30.09,8.7,47.63,12.45,51,18,8.47,13.97-17.31,25.34-9,41,7.51,14.15,27.4,21.16,43,19,4.75-.66,14.06-1.95,21-9,4.58-4.66,5.55-9.21,8-9,3.53.31,2.91,9.93,9,23,6.05,12.97,26.93,14.64,28,23,1.4,10.96-1.45,12.76,2,20,2.75,5.77,13.72,5.76,18,12,4.06,5.92-23.25,13.46-24,19-1.44,10.59,22.67.97,24,6,1.76,6.69-18.96,16.74-9,26,3.06,2.84,28.31,12.45,29,24,.1,1.76-16.06,1.36-19,14-4.35,18.74,10.53,11.51,11,13,3.07,9.81,2.47,14.64,11,26,6.36,8.47,6.57,21.17,3,30-5.29,13.09-19.26,18.67-41,27-26.3,10.08-37.19,8.28-41,17-3.57,8.15,4.09,13.97,11,36,1.36,4.34,2.76,9.51,7,43,4.35,34.35,6.53,51.53,6,55-5.44,35.64-47.82,56.89-60,63-53.32,26.74-139.28,15.24-182-14-23.1-15.81-65.08-56.07-58-75,6.11-16.34,39.64-6.44,53-29,12.35-20.86,12.34-39.51,10-45-10.19-23.87-5.94-15.66-37-54-22.33-27.56-31.15-43.22-31-51,.22-11.78,6-19.24,4-31-2.89-16.95-19.38-19.83-23-36-3.04-13.58,15.46-13.99,16-34,.23-8.66-1.08-11.76-10-48-6.91-28.08-8.45-35.67-5-38,6.43-4.34,21.31,15.6,31,11,9.09-4.32,8.25-27.71,5-43-5.46-25.7-18.57-32.48-14-47,.66-2.1-6.89-12.74,2-26,6.93-10.34-.61-14.5,0-15Z"/>
</svg>