<?xml version="1.0" encoding="UTF-8"?>
<svg id="Layer_15" data-name="Layer 15" xmlns="http://www.w3.org/2000/svg" viewBox="0 0 785.21 753">
  <defs>
    <style>
      .cls-1 {
        fill: #1ac62b;
        opacity: .56;
      }
    </style>
  </defs>
  <path class="cls-1" d="M210.21,276c16.98-12.8,14.77-12.82,18-14,6.61-2.42,8.12.48,34,5,11.04,1.93,14.36,2.02,16,5,3.53,6.39-5.38,17.49-9,22-6.41,7.99-11.48,14.31-19,15-11.13,1.03-13.15-11.59-33-18-8.52-2.75-15.46-2.79-16-6-.37-2.18,2.52-4.11,9-9Z"/>
  <path class="cls-1" d="M271.63,327.66c12.15,19.02,22.79,21.79,25.48,30.59,2.79,9.14-4.72,19.05-15.81,16.05-12.94-3.5-25.32-23.14-28.11-36.78-2.91-14.24,3.91-25.47,9.78-22.61,2.8,1.36,3.79,5.14,8.65,12.75Z"/>
</svg>