<?xml version="1.0" encoding="UTF-8"?>
<svg id="Layer_12" data-name="Layer 12" xmlns="http://www.w3.org/2000/svg" viewBox="0 0 785.21 753">
  <defs>
    <style>
      .cls-1 {
        fill: #ffa022;
      }
    </style>
  </defs>
  <path class="cls-1" d="M119.21,99c7.07-3.77,15.64,5.05,31,12,15.96,7.22,30.06,8.27,40,9,24.68,1.82,34.3-5.03,50,3,6.06,3.1,12.93,8.36,12,11-.93,2.65-9.38,1.61-35-1-34.47-3.51-38.8-3.62-45-1-3.44,1.46-10.63,7.3-25,19-12.94,10.53-18.44,15.83-22,14-2.93-1.51-2.95-7.02-3-16-.07-13.21,2.87-14.77,1-21-2.65-8.82-9.7-9.53-10-17-.18-4.33,1.96-9.84,6-12Z"/>
  <path class="cls-1" d="M236.21,223c3.04-1.5,12.88,5.86,11,12-.99,3.22-5.13,5.88-8,5-5.3-1.63-6.29-15.38-3-17Z"/>
  <path class="cls-1" d="M121.21,247c3.8-4.35,9.57-4.46,12-2,3.27,3.31.42,11.22-3,12-2.77.63-7.21-3.15-9-10Z"/>
  <path class="cls-1" d="M172.21,305c7.29,6.43,11.19,17.62,19,40,7.41,21.23,5.41,22.67,10,27,10.22,9.63,26.64,8.63,37,8,3.19-.19,10.6-.69,11-3,.42-2.38-7.05-4.14-16-11-.82-.63-8.12-6.32-14-15-5.14-7.6-3.79-9.51-10-24-6.7-15.64-12.36-22.95-14-25-.86-1.09-5.42-6.72-13-12-5.22-3.63-8.89-6.11-13-5-3.53.95-6.83,4.41-7,8-.23,4.86,5.35,7.9,10,12Z"/>
  <path class="cls-1" d="M207.21,439c-3,19-27.36,17.81-28,21-3.51,17.59-.32,30.51-2,50-.33,3.78,9.97,34.49-4,47-12.66,11.33-51.43,8.74-52,14-.75,6.83,22.9,23.78,45,27,11.24,1.64,40.11,19.19,70,18,38.23-1.53,67.29-12.52,76-19,11.87-8.83,21-41,7-63-2.84-4.47,14.72-27.1,6-47-7.44-16.98-12-4-18-33-3.06-14.81-16-13-22-10-17.39,8.69-74.22-28.94-78-5Z"/>
  <path class="cls-1" d="M296.21,306c-2.76,1.9,1.51,15.17,4,15,1.95-.13,5.06-8.69,1-13-1.27-1.34-3.77-2.84-5-2Z"/>
  <path class="cls-1" d="M204.21,173c.07,1.5.29,3.6,1,6,.31,1.04,1.3,4.13,4,8,3.69,5.28,6.15,5.7,6,7-.66,5.59-47.44,6.52-48,2-.12-1.01,2.16-1.3,10-6,6.58-3.94,7.76-5.4,15-10,2.78-1.76,6.85-4.25,12-7Z"/>
  <path class="cls-1" d="M337.21,354c1.52,2.61-.11,7.24-3,9-5.71,3.48-15.75-4.61-15-8,.81-3.66,15.11-5.95,18-1Z"/>
</svg>