<?xml version="1.0" encoding="UTF-8"?>
<svg id="Layer_7" data-name="Layer 7" xmlns="http://www.w3.org/2000/svg" viewBox="0 0 785.21 753">
  <defs>
    <style>
      .cls-1 {
        fill: #1ac62b;
        opacity: .56;
      }
    </style>
  </defs>
  <path class="cls-1" d="M91.21,72c14.14-11.58,50.52,12.52,106,26,8.76,2.13,29.24,15,50,21,30.09,8.7,29.63,7.45,33,13,8.47,13.97-11.31,31.34-3,47,7.51,14.15,26,22,48,14,4.5-1.64,15.06-8.95,22-16,4.58-4.66,4.55,9.79,7,10,3.53.31,9.91,1.93,16,15,6.05,12.97-4.07,15.64-3,24,1.4,10.96-1.45,9.76,2,17,2.75,5.77,8.72,2.76,13,9,4.06,5.92-1.25,16.46-2,22-1.44,10.59,10.67,20.97,12,26,1.76,6.69.04-5.26,10,4,3.06,2.84,8.31,5.45,9,17,.1,1.76-4.06,6.36-7,19-4.35,18.74,10.53,25.51,11,27,3.07,9.81,9.47-.36,18,11,6.36,8.47,1.57,18.17-2,27-5.29,13.09-23.26,15.67-45,24-26.3,10.08-30.19,12.28-34,21-3.57,8.15,5.09,25.97,12,48,1.36,4.34,2.76,7.51,7,41,4.35,34.35,5.83,48.01,4,51-19,31-50.82,47.89-63,54-53.32,26.74-114.28,20.24-157-9-23.1-15.81-69.08-53.07-62-72,6.11-16.34,38.64-24.44,52-47,12.35-20.86,6.34-36.51,4-42-10.19-23.87-1.94-10.66-33-49-22.33-27.56-28.15-33.22-28-41,.22-11.78,5-15.24,3-27-2.89-16.95-17.38-32.83-21-49-3.04-13.58,7.46-.99,8-21,.23-8.66-1.08-11.76-10-48-6.91-28.08-8.45-35.67-5-38,6.43-4.34,21.31,15.6,31,11,9.09-4.32,8.25-27.71,5-43-5.46-25.7-18.57-32.48-14-47,.66-2.1-1.89-18.74,7-32,6.93-10.34-1.61-17.5-1-18Z"/>
</svg>