<?xml version="1.0" encoding="UTF-8"?>
<svg id="Layer_13" data-name="Layer 13" xmlns="http://www.w3.org/2000/svg" viewBox="0 0 785.21 753">
  <defs>
    <style>
      .cls-1 {
        fill: #f26200;
      }
    </style>
  </defs>
  <path class="cls-1" d="M122.21,104c3.51-2.55,10.2,7.23,27,13,15.4,5.29,26.43,2.8,27,6,.55,3.08-9.74,4.66-24,15-11.75,8.52-16.04,15.63-20,14-2.86-1.18-2.67-5.73-4-15-3.2-22.3-9.27-30.62-6-33Z"/>
  <path class="cls-1" d="M238.21,229c-.29.33.16.85.54,2.69.34,1.66.19,2.23.46,2.31.63.2,2.89-2.34,2-4-.61-1.15-2.54-1.53-3-1Z"/>
  <path class="cls-1" d="M125.21,248c-1.25,1.71.48,4.85,2,5,1.72.17,4.02-3.39,3-5-.81-1.29-3.88-1.54-5,0Z"/>
  <path class="cls-1" d="M169.21,290c-.27.36.1.83,8,11,6.97,8.97,8.84,11.39,11,11,2.11-.38,3.92-3.33,4-6,.27-9.5-21.31-18.26-23-16Z"/>
  <path class="cls-1" d="M200.21,322c-3.63.92-5.55,19.25,2,23,2.46,1.22,6.31,1.1,8-1,4.32-5.37-6.13-22.98-10-22Z"/>
  <path class="cls-1" d="M183.21,471c5.08-8.56,28.66-8.65,38-12,9.56-3.43,22.52-19.45,33-12,8.62,6.13,44.79,21.08,45,23,1.89,17.66-47.43,37.27-51,40-2.48,1.9-30.62,36.1-48,25-14.13-9.03-24.57-51.24-17-64Z"/>
  <path class="cls-1" d="M153.21,578c-1.74-7.4,52.29-27.02,71-34,17.13-6.39,27.07-4.94,33-14,5.9-9.02,1.59-18.94,5-20,4.51-1.41,44.91,10.1,50,27,3.9,12.93,2.87,42.5,0,49-10.01,22.66-104.18,17.6-120,15-11.75-1.93-38.27-19.91-39-23Z"/>
  <path class="cls-1" d="M201.21,182c1.3,1.63-2.43,8.7-9,11-4.6,1.6-10.57.87-11-1-.82-3.54,17.83-12.72,20-10Z"/>
</svg>