<?xml version="1.0" encoding="UTF-8"?>
<svg id="Layer_8" data-name="Layer 8" xmlns="http://www.w3.org/2000/svg" viewBox="0 0 785.21 753">
  <defs>
    <style>
      .cls-1 {
        fill: #27e027;
        opacity: .56;
      }
    </style>
  </defs>
  <path class="cls-1" d="M147.21,477c-1.36-4.66-2.89-4.2-7.37-11.85-5.37-9.17-4.66-12.37-9.65-21.39-2.06-3.72-4.81-7.82-8.98-12.76-8.57-10.17-27.82-27.95-32-43-5.72-20.58,4.38-17.05-2-36-6.18-18.37-21.3-30.85-21-46,.2-10.02,8.13-17.66,11-28,8.25-29.7-14.34-72.75-9-77,4.35-3.46,8.53,15.99,19,11,4.83-2.3,10.96.43,13-16,2.56-20.58,2.84-24.87,0-35-5.44-19.4-6.78-24.71-7-39-.21-14.04-18.49-32.34-6-35,5.27-1.12,10.69-18.75,13-18,25.5,8.27,64.56,15.91,78,21,21.88,8.29,27.4,4.8,57,16,43.44,16.44,49.69,16.65,51,22,1.04,4.24-17.21,25.74,3,50,5,6-23.33-2.63-23,0,1.5,11.85,12.77,19.18,17,22,12.92,8.63,26.56,7.37,30,7,14.91-1.6,27.73-10.63,27.71-10.68,0-.02-1.71.68-1.71.68,18.1-1.85,20,0,20,0,3.19,3.11-.1,7.95-1,23-.61,10.17-.96,15.99,2,22,4.2,8.53,9.88,6.91,14,14,7.28,12.56-6.73,24.16-1,38,5.03,12.14,17.82,8.05,24,20,8.27,15.98-11.23,29.84-3,48,4.79,10.58,13.75,11.04,18,25,1.45,4.77,3.53,11.58,1,18-5.35,13.6-25.23,9.82-53,26-8.6,5.01-8.65,6.53-8,19,.33,6.44.41,17.83,6,25,10.89,13.97,8.56,27.64,12,56,5.22,43,.96,40.6-3,55-6.68,24.29-33.81,36.58-59,48-20.63,9.35-42.43,19.23-71,16-23.96-2.71-57.64,1.53-91-22-15.77-11.12-63.09-49.69-60-59,1.97-5.93-13.36-8.33,7-19,12.06-6.32,47.22-17.07,51-25,1.95-4.08,3.25-8.42,3.37-8.97,1.61-7.85-1.15-10.32-1.37-20.03-.24-10.69,3-12.11,1-19Z"/>
</svg>