<?xml version="1.0" encoding="UTF-8"?>
<svg id="Layer_2" data-name="Layer 2" xmlns="http://www.w3.org/2000/svg" viewBox="0 0 521.21 753">
  <defs>
    <style>
      .cls-1 {
        fill: #00a;
        opacity: .59;
      }
    </style>
  </defs>
  <path class="cls-1" d="M74.21,26c33.55-9.28,61.81-4.16,73-2,18.78,3.62,13.46,5.89,44,14,34.58,9.18,46.11,7.51,68,19,13.73,7.21,9.68,8.12,26,17,25.91,14.09,39.28,13.52,50,28,1.42,1.92.84,1.46,9,21,10.56,25.28,15.92,38.04,20,44,9.55,13.95,12.65,10.53,27,29,2.45,3.16,10.78,14.1,19,30,4.83,9.35,8.22,18.57,15,37,5.8,15.79,8.78,23.95,12,36,3.76,14.07,5.64,21.11,6,31,.46,12.51-1.89,14.27,0,24,1.94,9.96,5.01,11.27,8,24,1.86,7.93,3.18,13.54,2,20-.4,2.22-2.36,11.47-16,23-17.16,14.51-25.76,9.74-44,23-8.32,6.05-22.4,16.29-22,29,.29,9,7.6,11.64,17,28,0,0,6.35,11.05,11,27,8.01,27.48-7.94,65.03-26,88-33.78,42.97-86.69,49.93-110,53-106.37,13.99-180.52-59.29-191-70-13.39-13.69-40.34-41.23-33-64,7.93-24.58,49.27-23.25,55-50,3.39-15.83-7.47-33.13-17-42-12.76-11.87-23.33-8.82-34-17-22.04-16.88-15.69-59.52-14-73C45.77,220.73-37.37,107.44,21.21,53c18.44-17.14,47.83-25.57,53-27Z"/>
</svg>