<?xml version="1.0" encoding="UTF-8"?>
<svg id="Layer_11" data-name="Layer 11" xmlns="http://www.w3.org/2000/svg" viewBox="0 0 785.21 753">
  <defs>
    <style>
      .cls-1 {
        fill: #f4ed06;
      }
    </style>
  </defs>
  <path class="cls-1" d="M107.21,88c4.53-3.06,9.99.17,30,8,4.58,1.79,14.06,5.2,33,12,19.01,6.83,28.52,10.24,33,11,21.92,3.7,29.87-2.77,43,5,5.17,3.06,20,13.34,15,10h0s1.42,7.16,0,10c-2.77,5.54-20.09,2.09-26,1-31.85-5.89-52.94-9.79-69-1-13.86,7.58-14.06,19.19-35,29-4.91,2.3-7.74,3-9,6-3.92,9.37,16.74,19.16,23,44,3.52,13.99-.17,22.24-1,24-2.93,6.18-10.11,15.2-18,14-3.97-.6-7.35-3.68-9-7-1.57-3.16-2.54-8.49,0-11,2.28-2.26,4.84.29,10-2,4.21-1.87,8-6,8-6h0s-3.4-17.34-6-28c-8.42-34.57-17.23-35.52-16-53,.84-11.86,5.21-15.96,2-25-3.22-9.05-9.51-10.31-12-20-1.74-6.76-1.54-17.26,4-21Z"/>
  <path class="cls-1" d="M233.21,165c-3.88.36-8.02,13.48-4,24,2.6,6.81,8.88,13.21,12,12,3.62-1.4,2.4-12.79,1-19-1.42-6.25-5.32-17.35-9-17Z"/>
  <path class="cls-1" d="M160.21,343c-4.11-34.43-11.43-44.54-4-54,4.74-6.03,12.81-8.41,19-8,4.44.29,13.04,2.35,27,23,20.08,29.69,14.11,42.88,30,56,15.36,12.68,31.56,9.14,32,15,.57,7.71-27.1,19.08-54,18-9.23-.37-34.03-1.36-45-18-4.54-6.88-2.36-9.84-5-32Z"/>
  <path class="cls-1" d="M307.21,354c-.66,6.42,26.74,18.96,35,11,2.57-2.48,3.24-6.89,2-10-3.19-8.02-18.91-7.14-21-7-4.84.33-15.6,2.1-16,6Z"/>
  <path class="cls-1" d="M296.21,292c-8.02,10.1-6.15,24.77,0,33,.52.7,5.3,7.1,9,6,3.31-.98,3.43-7.28,5-16,3.87-21.48,11.38-28.75,8-32-3.54-3.4-15.6.94-22,9Z"/>
  <path class="cls-1" d="M237.21,211c-11.9,4.7-13.85,34.86-3,41,8.95,5.06,30.29-4.13,31-19,.68-14.43-18.45-25.77-28-22Z"/>
  <path class="cls-1" d="M178.21,451c19.7-33.26,102.27-38.13,136,0,4.07,4.6,14.65,16.56,17,34,2.6,19.28-7.36,26.69-3,46,3.58,15.88,11.47,15.96,12,30,.65,17.17-10.64,30.37-13,33-5.12,5.72-9.97,8.46-18,13-17.97,10.16-34.02,13.28-38,14-10.94,1.98-20.63,1.65-40,1-15.07-.51-22.61-.76-30-2-23.14-3.87-39.2-13.31-57-24-17.86-10.73-34.91-20.96-33-28,2.15-7.93,25.28-.48,44-16,14.63-12.13,17.69-30.93,18-33,2.29-15.33-4.34-20.5-3-39,.72-10,3.6-21.57,8-29Z"/>
  <path class="cls-1" d="M211.21,168c3.73,2.88-2.44,12.31,3,20,3.59,5.07,9.24,5.18,9,7-.31,2.37-9.85,1.57-30,4-3.23.39-10.85,1.36-21,1-6.95-.24-10.44-.4-11-2-.76-2.19,4.18-5.51,26-19,16.08-9.94,21.35-13.05,24-11Z"/>
  <path class="cls-1" d="M318.21,328c3.91-2.85,15.74,4.52,15,8-.63,2.97-11.08,6.14-15,1-2.06-2.69-2.15-7.44,0-9Z"/>
  <path class="cls-1" d="M166.21,260c-1.72,5.22,15.92,18.37,21,15,2.97-1.97,2.59-10.23-2-15-6.32-6.57-17.81-3.61-19,0Z"/>
  <path class="cls-1" d="M159.21,248c-4.47-.89-7.62-21.82,0-26,3.04-1.66,7.84-.7,10,2,5.43,6.79-5.53,24.89-10,24Z"/>
  <path class="cls-1" d="M166.21,440c-7.05-3.02-9.76-17.55-5-22,2.48-2.32,5.46-.45,16,0,14.47.62,22.06-2.33,23,0,.78,1.95-3.92,5.49-10,10-12.7,9.42-19.04,14.13-24,12Z"/>
  <path class="cls-1" d="M285.21,416c.68-9.85,22.99-19.26,31-12,6.39,5.79,4.83,23.2-5,28-10.87,5.31-26.6-7.37-26-16Z"/>
</svg>