<?xml version="1.0" encoding="UTF-8"?>
<svg id="Layer_9" data-name="Layer 9" xmlns="http://www.w3.org/2000/svg" viewBox="0 0 785.21 753">
  <defs>
    <style>
      .cls-1 {
        fill: #64ff00;
        opacity: .23;
      }
    </style>
  </defs>
  <path class="cls-1" d="M110.21,230c12.78-5.94,2.5-29.57-1-50-5.19-30.3-16.76-40.35-11-60,.38-1.29-13.64-27.25-4-30,10.45-2.98-8.73-19.02,13-11,3.66,1.35,51.44,9.9,69,13,25.05,4.42,38.46,11.93,51,19,6.7,3.78,58.97,21,53,21-18,0-3.55,32.85-11,26-25-23-16.03,15.67-16,25,.04,12.9,18.15,23.03,28,27,14.86,5.98,29.36,3.11,40,1,15.18-3.01,24.28-8.58,26-6,1.51,2.26-3.53,9.45-10,14-11.98,8.42-21.06,2.27-30,9-10.3,7.75-13.31,27.25-6,34,6.9,6.37,21.93.44,23,0,12.96-5.27,15.26-15.53,24-15,6.91.42,11.48,7.2,12,8,4.19,6.4,1.18,11.14,2,26,.66,12.08,1.05,19.16,6,24,6.71,6.56,14.69,2.06,19,8,4.15,5.73-2.2,11.39-2,26,.17,12.55,5.06,22.83,8,29,6.44,13.53,11.22,14.46,11,21-.39,11.38-15.26,19.68-23,24-20.42,11.4-30.78,6.12-43,18-2.46,2.39-8.21-.1-8,11,.21,11.16,10.31,7.83,17,21,5.26,10.35,19.24,32.15,21,56,3.08,41.74.57,44.5-4,60-4.94,16.74-27.47,27.37-40,37-7.57,5.82-42.39,30.33-79,31-30.52.56-83.92-18.62-108-33-12.6-7.52-46.26-40.45-44-51,2.01-9.41,39.69-15.82,55-32,13.1-13.84,8.44-23.33,9-31,1.42-19.53,3.91-18.92-2-32-4.77-10.55,3.61-21.45-24-42-8.54-6.35-5.27-21.08-14-33-3.86-5.27-10.12-13.81-12-26-2.25-14.57,4.42-17.01,2-31-1.97-11.35-6.62-11.24-11-27-2.32-8.33-4.29-15.41-3-24,2.46-16.43,13.98-19.18,13-30-1.24-13.74-20.87-21.25-19-25,1.53-3.07,13.56,4.39,23,0Z"/>
</svg>