<?xml version="1.0" encoding="UTF-8"?>
<svg id="Layer_10" data-name="Layer 10" xmlns="http://www.w3.org/2000/svg" viewBox="0 0 785.21 753">
  <defs>
    <style>
      .cls-1 {
        fill: #e7ff3b;
        opacity: .56;
      }
    </style>
  </defs>
  <path class="cls-1" d="M95.21,98c3.13-7.93,4.95-11.37,7-16,2.87-6.48,66.5,13.84,99,31,13.87,7.33,57.68,9.57,64,19,1.27,1.9,29.1,57.1,10,38-24-24-30.88,9.13-29,17,3.34,13.99,15.81,33.52,17,34,11.15,4.54,20.73,2.02,22,6,1.54,4.83-12.41,9.18-13,19-.41,6.8,5.83,12.15,15,20,9.7,8.31,17.45,14.95,27,14,.97-.1,1.78-.28,18-7-3.92-5.15,8.84,9.9,11,16,2.96,8.33-.79,11.21,3,17,1.66,2.54,4.44,4.36,10,8,8.21,5.38,9.46,4.68,12,7,6.59,6.04,1.12,13.53,5,28,3.91,14.58,11.72,15.44,13,29,.41,4.38,1.11,11.72-3,18-6.68,10.22-17.8,5-36,16-3.1,1.87-12.96,8.18-20,20-2.83,4.76-6.44,11.01-5,18,.93,4.5,3.06,4.97,7,12,2.96,5.28,4.31,9.86,7,19,1.63,5.52,3.76,12.77,5,21,2.27,15.09-.65,18.85,0,33,.98,21.18,7.99,22.28,7,35-1.54,19.74-19.68,33.29-30,41-24.16,18.05-64.91,27.58-74,28-22.71,1.05-72.13-14.08-88-20-23.83-8.89-56.15-44.43-54-52,1.58-5.57,28.39-13.75,44-26,5.81-4.56,14.06-24.5,19-32,5.68-8.63-3.15-29.43-1-38,1.79-7.12-8.71-15.05-27-51-29-57,3-4-23-43-5.16-7.74-6.14-23.81,0-39,5.19-12.83,12.8-14.37,17-29,2.79-9.74,4.35-26.23-4-33-6-4.86-12.66-1.1-16-6-4.68-6.87,5.76-18.15,1-24-3.4-4.19-11.98-2.39-12-3-.03-.82,15.76,2.19,25-5,12.68-9.87-6.18-47.21-10-63-3.64-15.02-12.82-16.87-7-24,3.13-3.84-14.51-49.18-13-53Z"/>
</svg>