<?xml version="1.0" encoding="UTF-8"?>
<svg id="Layer_3" data-name="Layer 3" xmlns="http://www.w3.org/2000/svg" viewBox="0 0 785.21 753">
  <defs>
    <style>
      .cls-1 {
        fill: #1d1d89;
        opacity: .56;
      }
    </style>
  </defs>
  <path class="cls-1" d="M36.21,55c31.09-16.7,58.62-31.48,96-26,15.53,2.28,8.92,4.56,50,17,39.98,12.11,42.34,8.77,63,18,23.69,10.58,22.53,15.84,51,28,18.42,7.86,23.5,7.63,30,15,9.8,11.11,5.04,19.34,15,45,2.87,7.38,7.54,19.19,17,32,10.64,14.41,15.4,13.93,25,28,3.97,5.82,4,7.14,15,31,14.64,31.77,14.79,29.86,18,39,3.77,10.74,5.85,21.16,10,42,3.16,15.86,2.62,15.79,7,40,6.14,33.89,7.11,33.52,6,37-5.23,16.34-23.52,14.31-60,43-11.75,9.24-17.82,15.71-20,25-3,12.77,2.75,24.87,5,29,5.79,10.63,11.4,10.76,19,22,0,0,6.96,10.3,10,25,6.69,32.36-34,71.19-37,74-59.29,55.43-152.61,40.04-164,38,0,0-101.02-18.12-144-102-2.06-4.03-5.34-10.65-3-17,4.53-12.28,24.63-8.74,45-25,6.88-5.49,14.36-11.47,17-21,6.64-24-22.71-51.49-35-63-24.23-22.7-33.4-18.41-42-34-9.15-16.58-3-29.04,1-71,1.8-18.93-.48-5.59,2-79,2.41-71.42,4.32-76.6-2-90-7.84-16.63-22.57-33.65-16-44,3.66-5.77,11.03-4.86,13-11,2.88-8.96-11.1-16.21-10-27,.81-7.96,9.38-13.37,18-18Z"/>
</svg>