<?xml version="1.0" encoding="UTF-8"?>
<svg id="Layer_4" data-name="Layer 4" xmlns="http://www.w3.org/2000/svg" viewBox="0 0 785.21 753">
  <defs>
    <style>
      .cls-1 {
        fill: #2358b7;
        opacity: .56;
      }
    </style>
  </defs>
  <path class="cls-1" d="M35.21,74c-.14-.96.29-4.72,35-16,23.83-7.74,35.75-11.61,44-12,15.28-.72,13.98,3.81,61,17,23.82,6.68,32.08,7.74,49,15,7.21,3.09,17.85,8.1,24,11,25.16,11.85,24.16,12.36,30,14,18.45,5.18,22.62-1.55,39,4,14.06,4.76,22.88,13.75,26,17,12.14,12.65,8.64,19.1,21,40,5.37,9.07,13.58,18.72,30,38,16.02,18.81,16.96,18.16,21,25,8.87,15.04,5.31,19.88,13,45,9.99,32.63,20.08,37.75,17,55-2.3,12.88-8.72,14.48-8,26,.95,15.14,12.47,19.29,14,33,1.55,13.85-8.43,25.5-14,32-24.87,29.02-55.44,17.73-66,40-3.57,7.53-2.38,20.35,0,46,1.11,11.91,1.66,17.86,4,26,5.25,18.24,12.09,22.55,12,34-.06,7.81-3.3,13.99-12,26-17.11,23.63-25.67,35.44-41,47-37.51,28.29-92.64,37.87-135,22-5.92-2.22-17.28,1.86-46-14-20.73-11.44-35.96-15.02-44-23-11.5-11.42-8.49-12.77-22-28-17.81-20.08-35.05-46.98-34-55,.78-6.01,17.56,1.11,39-11,21.61-12.2,20.42-26.3,23-32,9.19-20.29-5.32-43.58-15-55-20.71-24.44-37-36-37-36-11.79-8.37-20.47-12.14-22-21-1.84-10.69,9.31-13.95,11-28,2.01-16.7-12.58-21.71-14-41-1.21-16.52,9.14-17.53,12-37,3.66-24.98-12.18-31.48-13-63-.09-3.56-.67-38.56,15-45,12.48-5.13,29.41,10.24,31,8,2.27-3.2-38.49-25.65-36-50,.78-7.61,6.22-19.68,13-29,5.64-7.75,9.9-10.46,9-14-2.29-8.96-33.2-5.63-34-11Z"/>
</svg>